HIERARCHY
ROOT Hips
{
	OFFSET 0.00 0.00 0.00
	CHANNELS 6 Xposition Yposition Zposition Xrotation Yrotation Zrotation
	JOINT LeftUpLeg
	{
		OFFSET 3.10215 0.00000 0.00000
		CHANNELS 3 Xrotation Yrotation Zrotation
		JOINT LeftLeg
		{
			OFFSET 0.00000 -16.83331 0.00000
			CHANNELS 3 Xrotation Yrotation Zrotation
			JOINT LeftFoot
			{
				OFFSET 0.00000 -15.53879 0.00000
				CHANNELS 3 Xrotation Yrotation Zrotation
				JOINT LeftToeBase
				{
					OFFSET 0.00000 -1.57366 5.87297
					CHANNELS 3 Xrotation Yrotation Zrotation
					End Site
					{
						OFFSET 0.00000 0.00000 2.95275
					}
				}
			}
		}
	}
	JOINT RightUpLeg
	{
		OFFSET -3.10215 0.00000 0.00000
		CHANNELS 3 Xrotation Yrotation Zrotation
		JOINT RightLeg
		{
			OFFSET 0.00000 -16.83331 0.00000
			CHANNELS 3 Xrotation Yrotation Zrotation
			JOINT RightFoot
			{
				OFFSET 0.00000 -15.53879 0.00000
				CHANNELS 3 Xrotation Yrotation Zrotation
				JOINT RightToeBase
				{
					OFFSET 0.00000 -1.57366 5.87297
					CHANNELS 3 Xrotation Yrotation Zrotation
					End Site
					{
						OFFSET 0.00000 0.00000 2.95275
					}
				}
			}
		}
	}
	JOINT Spine
	{
		OFFSET 0.00000 0.03937 0.00000
		CHANNELS 3 Xrotation Yrotation Zrotation
		JOINT Spine1
		{
			OFFSET 0.00000 8.31046 0.00000
			CHANNELS 3 Xrotation Yrotation Zrotation
			JOINT Neck
			{
				OFFSET 0.00000 6.25463 0.00000
				CHANNELS 3 Xrotation Yrotation Zrotation
				JOINT Head
				{
					OFFSET 0.00000 8.60817 0.00000
					CHANNELS 3 Xrotation Yrotation Zrotation
					End Site
					{
						OFFSET 0.00000 4.52755 0.00000
					}
				}
			}
			JOINT LeftShoulder
			{
				OFFSET 0.00000 6.25463 0.00000
				CHANNELS 3 Xrotation Yrotation Zrotation
				JOINT LeftArm
				{
					OFFSET 7.44857 -0.00003 0.00000
					CHANNELS 3 Xrotation Yrotation Zrotation
					JOINT LeftForeArm
					{
						OFFSET 10.73545 -0.00004 0.00000
						CHANNELS 3 Xrotation Yrotation Zrotation
						JOINT LeftHand
						{
							OFFSET 10.15840 -0.00004 0.00000
							CHANNELS 3 Xrotation Yrotation Zrotation
							JOINT LeftHandThumb
							{
								OFFSET 0.00000 0.00000 0.00000
								CHANNELS 3 Xrotation Yrotation Zrotation
								End Site
								{
									OFFSET 0.00000 0.00000 3.93700
								}
							}
							JOINT L_Wrist_End
							{
								OFFSET 3.93700 -0.00001 0.00000
								CHANNELS 3 Xrotation Yrotation Zrotation
							}
						}
					}
				}
			}
			JOINT RightShoulder
			{
				OFFSET 0.00000 6.25463 0.00000
				CHANNELS 3 Xrotation Yrotation Zrotation
				JOINT RightArm
				{
					OFFSET -7.44857 -0.00003 0.00000
					CHANNELS 3 Xrotation Yrotation Zrotation
					JOINT RightForeArm
					{
						OFFSET -10.73545 -0.00004 0.00000
						CHANNELS 3 Xrotation Yrotation Zrotation
						JOINT RightHand
						{
							OFFSET -10.15840 -0.00004 0.00000
							CHANNELS 3 Xrotation Yrotation Zrotation
							JOINT RightHandThumb
							{
								OFFSET 0.00000 0.00000 0.00000
								CHANNELS 3 Xrotation Yrotation Zrotation
								End Site
								{
									OFFSET 0.00000 0.00000 3.93700
								}
							}
							JOINT R_Wrist_End
							{
								OFFSET -5.39369 -0.00002 0.00000
								CHANNELS 3 Xrotation Yrotation Zrotation
							}
						}
					}
				}
			}
		}
	}
}
MOTION
Frames: 14
Frame Time: 0.008333
 121.3591 33.8825 -16.0101 179.5596 9.6821 -177.2740 -18.9103 -37.2792 -13.2119 18.7536 -0.0000 0.0000 -5.4760 -17.1210 -25.0084 -1.7961 -0.0000 0.0000 6.4871 30.4795 -24.9470 11.0884 -0.0000 0.0000 -12.1554 10.3834 8.9521 1.0139 0.0000 0.0000 -3.2819 2.3501 -2.0028 0.4597 0.9254 -1.9901 21.2391 19.1039 0.0169 -2.1701 -4.8599 -9.9441 17.0322 -4.7581 26.2549 -17.3379 -28.3367 -87.0202 -0.0095 -88.7243 -0.0092 -18.3764 4.9434 -14.3608 0.0000 0.0000 -0.0000 0.0000 0.0000 -0.0000 22.3935 -3.1282 -18.6753 3.5223 3.2887 100.2380 -0.0000 7.7305 0.0000 -31.4397 12.4338 27.9655 0.0000 -0.0000 0.0000 0.0000 -0.0000 0.0000
 121.5331 33.8084 -15.9242 179.2536 7.7554 -176.9451 -19.8018 -37.8487 -13.6486 19.0228 -0.0000 0.0000 -6.1393 -17.9728 -25.3733 -1.7259 0.0000 0.0000 6.7722 29.1854 -25.2537 10.5821 -0.0000 0.0000 -13.3147 10.6616 9.2545 0.9168 -0.0000 0.0000 -3.3807 2.3153 -2.0107 0.8291 0.8949 -2.1208 21.0411 19.1865 -0.0128 -2.4152 -4.6227 -10.3583 16.8370 -4.9433 25.9541 -18.4664 -28.6534 -86.7151 -0.0138 -89.1252 -0.0136 -19.5630 4.7058 -15.0100 0.0000 0.0000 -0.0000 0.0000 0.0000 -0.0000 22.5263 -3.2144 -18.3110 3.2205 4.1155 100.4506 -0.0000 7.1783 0.0000 -31.4228 12.2232 28.3253 0.0000 -0.0000 0.0000 0.0000 -0.0000 0.0000
 121.7029 33.7405 -15.8286 178.8692 5.8408 -176.5958 -20.7236 -38.3812 -14.0752 19.1105 -0.0000 0.0000 -6.7394 -18.7376 -25.7050 -1.5970 0.0000 0.0000 6.4636 27.1218 -25.2309 10.2431 -0.0000 -0.0000 -14.4452 10.7289 9.3580 1.0121 0.0000 0.0000 -3.4525 2.3515 -2.0740 0.9941 0.9448 -2.1588 20.9960 19.2768 -0.1569 -2.7068 -4.5058 -10.5896 16.8176 -5.2287 25.6652 -19.7202 -28.8593 -86.6255 -0.0159 -89.2429 -0.0157 -20.6450 4.3378 -15.5489 0.0000 0.0000 -0.0000 0.0000 0.0000 -0.0000 22.6701 -3.4074 -17.9226 2.8832 5.2068 100.5819 -0.0000 6.6988 0.0000 -31.5121 11.8185 28.5948 0.0000 0.0000 0.0000 0.0000 0.0000 0.0000
 121.8664 33.6781 -15.7182 178.3586 3.8384 -176.2710 -21.7890 -38.8571 -14.4871 19.1263 0.0000 0.0000 -7.1168 -19.5690 -26.2029 -1.7218 0.0000 0.0000 5.7121 24.4682 -25.0241 9.9476 -0.0000 0.0000 -15.5869 11.0487 9.1492 1.3401 -0.0000 0.0000 -3.5741 2.2471 -2.0805 1.0873 0.8509 -2.3031 20.8546 19.3030 -0.1325 -2.8476 -4.0136 -11.0447 16.7918 -5.1393 25.3132 -21.1422 -29.1049 -86.7046 -0.0130 -89.0703 -0.0128 -21.6774 4.1245 -16.1364 0.0000 0.0000 -0.0000 0.0000 0.0000 -0.0000 22.8246 -3.4283 -17.5645 2.3673 6.1154 100.6872 -0.0000 6.0595 0.0000 -31.3167 11.4465 28.9691 0.0000 0.0000 0.0000 0.0000 0.0000 0.0000
 122.0376 33.6291 -15.6051 177.8666 1.9467 -175.9585 -22.7732 -39.2736 -14.8306 19.0292 0.0000 0.0000 -7.3757 -20.3732 -26.9038 -1.8965 0.0000 -0.0000 4.8597 21.7721 -24.7263 9.7426 -0.0000 0.0000 -16.7674 11.3039 8.4234 2.5348 0.0000 0.0000 -3.8138 2.2395 -2.1687 1.3598 0.8576 -2.3817 20.8364 19.3275 -0.1174 -3.2696 -3.5252 -11.4533 16.8074 -5.2380 25.0608 -22.5292 -29.0835 -86.9721 -0.0093 -88.7017 -0.0091 -22.5291 3.8809 -16.5593 -0.0000 0.0000 -0.0000 -0.0000 0.0000 -0.0000 22.8939 -3.4707 -17.1931 1.7134 7.0261 100.7737 -0.0000 5.2478 0.0000 -30.6656 11.4057 29.0209 0.0000 -0.0000 0.0000 0.0000 -0.0000 0.0000
 122.2147 33.5988 -15.4963 177.4977 0.2150 -175.6016 -23.2306 -39.8143 -14.9576 18.1115 0.0000 -0.0000 -7.3683 -21.1177 -27.6833 -2.3069 -0.0000 0.0000 4.3001 19.1582 -24.4708 9.2281 0.0000 -0.0000 -17.5620 11.2487 7.3377 3.0500 0.0000 0.0000 -3.9008 2.2660 -2.3147 1.6078 0.8951 -2.4717 20.7560 19.4285 -0.1022 -3.4742 -3.0843 -11.8655 16.6042 -5.2719 24.6167 -23.6449 -29.0013 -87.2966 -0.0064 -88.1158 -0.0062 -23.3644 3.8724 -17.3656 -0.0000 -0.0000 -0.0000 -0.0000 -0.0000 -0.0000 22.8124 -3.3973 -16.7715 1.2231 7.8504 100.7480 -0.0000 4.6479 0.0000 -30.1558 11.0149 29.0993 -0.0000 -0.0000 0.0000 -0.0000 -0.0000 0.0000
 122.3879 33.5679 -15.3696 176.9188 -1.5166 -175.3659 -24.0191 -40.1517 -15.0010 17.5253 0.0000 -0.0000 -7.5316 -22.1091 -28.6365 -2.5474 0.0000 0.0000 3.4233 16.4470 -24.0821 8.6225 0.0000 -0.0000 -18.1203 11.1036 6.5672 3.6394 0.0000 0.0000 -3.9991 2.2757 -2.4156 1.5268 0.9221 -2.5154 20.8405 19.5721 -0.1315 -3.7768 -2.6077 -12.1228 16.6537 -5.3615 24.3819 -24.7448 -28.6678 -87.9556 -0.0047 -87.4185 -0.0045 -24.8008 3.9539 -18.1585 0.0000 -0.0000 0.0000 0.0000 -0.0000 0.0000 22.8390 -3.3392 -16.4341 0.5475 8.7541 100.7075 -0.0000 3.8766 0.0000 -29.6847 10.7827 29.3710 0.0000 -0.0000 0.0000 0.0000 -0.0000 0.0000
 122.5576 33.5415 -15.2051 176.1276 -3.4190 -175.3834 -25.0762 -40.4695 -14.8723 17.0819 -0.0000 0.0000 -7.7251 -23.4065 -30.1489 -2.8135 -0.0000 -0.0000 2.1230 13.4261 -23.4929 8.0302 -0.0000 0.0000 -18.4196 11.0846 6.6128 4.1888 0.0000 0.0000 -4.0062 2.2044 -2.2804 1.1543 0.8766 -2.5848 20.6791 19.5047 -0.1037 -3.7080 -2.0573 -12.3570 16.6145 -5.4120 24.1463 -25.7787 -28.3540 -88.7876 -0.0035 -86.5135 -0.0033 -24.9294 3.9363 -18.2782 0.0000 -0.0000 -0.0000 0.0000 -0.0000 -0.0000 22.7126 -3.4185 -16.2074 0.0124 9.5160 100.6958 -0.0000 3.3113 0.0000 -28.8718 10.4551 29.2417 -0.0000 0.0000 0.0000 -0.0000 0.0000 0.0000
 122.7386 33.5310 -15.0572 175.4770 -5.1064 -175.3911 -25.8218 -40.5485 -14.5953 16.5261 -0.0000 0.0000 -7.7195 -24.7948 -32.2965 -3.3587 0.0000 0.0000 0.4474 9.5512 -22.9479 7.5836 -0.0000 0.0000 -18.5129 12.0712 8.3054 4.3811 0.0000 -0.0000 -4.0488 2.1594 -2.2072 0.9478 0.8528 -2.7009 20.7215 19.5842 -0.0997 -3.9824 -1.4222 -12.5548 16.6229 -5.4952 24.0176 -26.5484 -27.6868 -89.7087 -0.0027 -85.5307 -0.0025 -24.7432 3.8595 -18.3332 -0.0000 0.0000 -0.0000 -0.0000 0.0000 -0.0000 22.6918 -3.3195 -16.0110 -0.7681 10.5059 100.6636 -0.0000 2.7234 0.0000 -28.2957 10.3051 29.0651 0.0000 -0.0000 0.0000 0.0000 -0.0000 0.0000
 122.9020 33.5303 -14.9236 174.9916 -6.6065 -175.3641 -26.4083 -40.4882 -14.3704 16.0291 0.0000 0.0000 -7.8218 -26.1230 -33.9825 -3.6484 -0.0000 0.0000 2.0159 9.6938 -22.7614 4.5898 -0.0000 0.0000 -17.4132 8.6214 8.5878 4.6968 0.0000 0.0000 -4.0575 2.1950 -2.0782 0.9632 0.8903 -2.8251 20.6324 19.8742 -0.2043 -4.1106 -1.0403 -12.7287 16.4456 -5.5702 23.7471 -27.0947 -27.0124 -90.6357 -0.0022 -84.4500 -0.0020 -24.4702 3.7988 -18.0158 -0.0000 0.0000 -0.0000 -0.0000 0.0000 -0.0000 22.3479 -3.1966 -16.0472 -1.0889 11.0146 100.6890 -0.0000 2.7717 0.0000 -26.8813 9.4976 28.0656 0.0000 0.0000 -0.0000 0.0000 0.0000 -0.0000
 123.0767 33.5243 -14.7808 174.4255 -8.1671 -175.3245 -27.1016 -39.9972 -14.1388 15.5938 0.0000 0.0000 -7.8530 -27.9302 -36.0759 -4.0541 -0.0000 -0.0000 1.7216 7.1624 -22.5215 2.6955 0.0000 -0.0000 -16.7972 8.7361 8.7703 4.8720 -0.0000 0.0000 -4.1208 2.2595 -1.9467 1.0287 0.9599 -3.1076 20.4426 19.9792 -0.2089 -4.2692 -0.5352 -12.8125 16.3501 -5.6095 23.7112 -27.7553 -26.3008 -91.6794 -0.0018 -83.2540 -0.0016 -24.1969 3.4822 -17.0921 0.0000 -0.0000 0.0000 0.0000 -0.0000 0.0000 22.0853 -3.1613 -16.0843 -1.4387 10.8483 100.7151 -0.0000 2.8137 0.0000 -25.1249 8.7036 27.5012 0.0000 0.0000 -0.0000 0.0000 0.0000 -0.0000
 123.2370 33.5237 -14.6280 173.8819 -9.5444 -175.2238 -27.7770 -39.2361 -13.9470 15.2198 0.0000 0.0000 -7.9738 -29.5286 -38.1280 -3.3760 0.0000 -0.0000 2.6252 6.8671 -22.6383 0.1957 -0.0000 -0.0000 -15.7507 7.2232 8.4035 4.5578 -0.0000 0.0000 -4.2461 2.3660 -1.7496 1.2509 1.0677 -3.5154 20.3458 20.1744 -0.3130 -4.6028 -0.0212 -12.8705 16.2709 -5.6806 23.7042 -28.2548 -25.3470 -92.6868 -0.0015 -82.0322 -0.0013 -23.7142 3.1791 -16.0766 0.0000 -0.0000 -0.0000 0.0000 -0.0000 -0.0000 21.8142 -3.0126 -16.3793 -1.9092 10.4963 100.8969 -0.0000 2.8570 0.0000 -24.0878 9.2549 27.4249 0.0000 -0.0000 0.0000 0.0000 -0.0000 0.0000
 123.4078 33.5309 -14.4551 173.1522 -10.8642 -175.3203 -28.4854 -38.3092 -13.5065 14.7957 0.0000 0.0000 -7.9682 -31.2365 -40.3253 -3.6152 0.0000 0.0000 1.0307 3.7946 -22.4238 -0.3352 -0.0000 -0.0000 -15.6725 9.2855 9.3124 4.4050 -0.0000 -0.0000 -4.3329 2.4899 -1.4345 1.1963 1.1977 -3.9360 20.2162 20.2888 -0.3728 -4.7935 0.5883 -12.9311 16.1297 -5.8184 23.7258 -28.4505 -24.3629 -93.7058 -0.0013 -80.7787 -0.0011 -22.9456 2.6758 -14.4883 -0.0000 -0.0000 -0.0000 -0.0000 -0.0000 -0.0000 21.6157 -2.8198 -16.6832 -2.2672 10.0754 101.0148 -0.0000 3.1509 0.0000 -23.0435 9.7090 27.1272 -0.0000 0.0000 0.0000 -0.0000 0.0000 0.0000
 123.5939 33.5452 -14.2925 172.5746 -12.0667 -175.7054 -28.7055 -37.3722 -12.6435 14.3037 -0.0000 0.0000 -8.1042 -32.6373 -42.8119 -3.9129 0.0000 0.0000 -0.4832 1.1514 -21.9522 -0.4592 -0.0000 0.0000 -15.6571 11.1912 10.2017 4.1755 -0.0000 0.0000 -4.3083 2.7332 -0.9456 1.1420 1.4436 -4.2368 20.1670 20.2266 -0.3123 -5.0673 1.2193 -13.1275 16.1239 -6.0878 23.7996 -28.6493 -23.4064 -94.6464 -0.0011 -79.4103 -0.0009 -22.1198 2.1180 -12.7504 0.0000 0.0000 -0.0000 0.0000 0.0000 -0.0000 21.5247 -2.7427 -16.9286 -2.5992 9.5742 101.0528 -0.0000 3.5909 0.0000 -22.1437 10.2402 26.7715 0.0000 -0.0000 -0.0000 0.0000 -0.0000 -0.0000
